<svg 
 xmlns="http://www.w3.org/2000/svg"
 xmlns:xlink="http://www.w3.org/1999/xlink"
 width="32px" height="29px">
<path fill-rule="evenodd"  fill="rgb(34, 34, 34)"
 d="M31.898,7.564 L26.493,19.976 C26.296,20.410 25.881,20.685 25.408,20.685 L10.553,20.685 C10.21,20.685 9.547,20.331 9.409,19.819 L4.576,2.363 L1.183,2.363 C0.532,2.363 0.0,1.831 0.0,1.181 C0.0,0.531 0.532,0.0 1.183,0.0 L5.464,0.0 C5.997,0.0 6.470,0.354 6.608,0.866 L11.441,18.321 L24.619,18.321 L28.998,8.274 L14.400,8.274 C13.749,8.274 13.217,7.742 13.217,7.92 C13.217,6.442 13.749,5.910 14.400,5.910 L30.813,5.910 C31.208,5.910 31.583,6.107 31.800,6.442 C32.17,6.777 32.56,7.190 31.898,7.564 ZM9.429,23.641 C10.909,23.641 12.112,24.842 12.112,26.320 C12.112,27.798 10.909,28.999 9.429,28.999 C7.949,28.999 6.746,27.797 6.746,26.320 C6.746,24.842 7.949,23.641 9.429,23.641 ZM26.20,23.641 C27.499,23.542 28.781,24.665 28.880,26.123 C28.920,26.852 28.702,27.542 28.229,28.73 C27.756,28.625 27.105,28.940 26.394,28.999 C26.335,28.999 26.256,28.999 26.197,28.999 C24.797,28.999 23.633,27.896 23.534,26.497 C23.435,25.40 24.540,23.739 26.20,23.641 Z"/>
</svg>